<?xml version="1.0" encoding="UTF-8" standalone="no"?>
<svg
   viewBox="0.5 0.5 32 32"
   version="1.1"
   id="svg1"
   width="32"
   height="32"
   xmlns:xlink="http://www.w3.org/1999/xlink"
   xmlns="http://www.w3.org/2000/svg"
   xmlns:svg="http://www.w3.org/2000/svg">
  <defs
     id="defs1" />
  <g
     id="g1"
     transform="translate(0,13.5)"
     style="stroke:#ffffff;stroke-opacity:1">
    <path
       id="a"
       fill="none"
       stroke="#000080"
       stroke-width="1.72944"
       d="M 16.5,11.487214 V 5.8290714 L 3.284719,0.17092864 V -5.4872141 L 16.5,-11.145357 29.715281,-5.4872141 V 0.17092864 L 23.10764,3"
       style="stroke:#ffffff;stroke-opacity:1" />
    <use
       xlink:href="#a"
       transform="rotate(180,16.5,3)"
       id="use1"
       style="stroke:#ffffff;stroke-opacity:1" />
    <path
       style="fill:#000000;stroke:#ffffff;stroke-width:0.084105;stroke-opacity:1"
       d="M 9.3921923,15.010769 2.4955855,12.045245 V 8.6567571 5.2682682 L 5.0797206,4.161241 C 6.5009948,3.5523763 7.6820559,3.0360141 7.7043011,3.013769 7.7265455,2.9915245 6.554223,2.4646528 5.0991395,1.8429446 L 2.4535335,0.71256512 V -2.6601958 -6.0329574 l 7.0163906,-2.9985773 7.0163909,-2.9985773 7.027945,3.0054118 7.027947,3.0054119 -3.36e-4,3.3641984 -3.35e-4,3.36419838 -2.649831,1.12916092 c -1.457405,0.6210368 -2.620522,1.1563751 -2.584699,1.1896372 0.03584,0.03328 1.105927,0.5048768 2.378014,1.0480428 1.272088,0.5431616 2.436313,1.0463751 2.587168,1.118249 l 0.274278,0.1306816 -0.02195,3.3560749 -0.02195,3.3560751 -6.964194,2.977824 c -3.830335,1.637803 -7.028425,2.974137 -7.106895,2.96963 -0.07847,-0.0045 -3.246147,-1.342677 -7.0392807,-2.973715 z M 22.700461,13.59938 28.859808,10.969913 28.859318,8.6570266 28.858829,6.3441408 22.258421,3.5288154 15.658012,0.71348928 V -2.3795578 -5.4726061 h 0.839834 0.839834 l 0.02227,2.5714355 0.02227,2.57143556 2.852307,1.22193216 2.852307,1.22193348 2.889109,-1.23781188 2.889169,-1.23780992 -0.02234,-2.3038675 -0.02234,-2.3038669 -6.16539,-2.641673 -6.16539,-2.6416724 -6.219065,2.6559796 -6.2190647,2.6559796 v 2.2785497 2.27854914 L 10.695819,2.4636166 17.340111,5.3107469 V 8.3716186 11.43249 H 16.500294 15.660478 L 15.638218,8.8916243 15.615959,6.3507578 12.840496,5.1544454 C 11.313991,4.4964742 9.9886019,3.9556614 9.8951875,3.9526413 9.8017735,3.9496213 8.4581967,4.4906163 6.9094614,5.1548538 L 4.0935798,6.3625581 v 2.2947789 2.294779 l 6.1396622,2.634389 c 3.376814,1.448914 6.177509,2.636179 6.223767,2.638365 0.04626,0.0022 2.855811,-1.179283 6.243452,-2.62549 z"
       id="path1" />
  </g>
  <path
     style="fill:#fdfdfd;fill-opacity:1;stroke:#ffffff;stroke-width:0.0730506;stroke-opacity:1"
     d="M 12.151567,29.694796 C 9.8212539,28.69872 6.6907673,27.360084 5.1949304,26.720049 l -2.7197035,-1.1637 -0.00143,-3.396881 -0.00143,-3.396882 2.5385077,-1.086258 c 1.3961792,-0.597442 2.5652567,-1.110695 2.59795,-1.140561 0.059453,-0.05431 -0.983095,-0.529865 -3.6937087,-1.684859 l -1.442749,-0.614756 0.00112,-3.398174 0.00112,-3.398173 6.9204238,-2.9579607 C 13.20126,2.8549658 16.397632,1.5239924 16.498077,1.5241257 c 0.100444,1.332e-4 3.296456,1.3312155 7.102248,2.9579607 l 6.919623,2.9577186 0.0019,3.396852 0.0019,3.396852 -2.633602,1.131087 -2.633602,1.131088 0.496933,0.224436 c 0.273314,0.12344 1.457801,0.633506 2.632193,1.133481 l 2.135259,0.909044 3.24e-4,3.396852 3.23e-4,3.396852 -1.1494,0.488331 c -0.63217,0.268583 -3.770463,1.608148 -6.973987,2.976811 -3.203524,1.368664 -5.866217,2.487551 -5.917097,2.486416 -0.05088,-0.0011 -1.999129,-0.817034 -4.329443,-1.813111 z m 8.473868,-1.721868 c 2.129424,-0.912101 4.849645,-2.074204 6.044935,-2.582449 l 2.173255,-0.924081 v -2.30485 -2.304849 L 22.25081,17.039227 15.657995,14.221755 15.638948,11.10472 15.619902,7.9876844 h 0.885943 0.885944 l -0.02172,1.4792742 c -0.01194,0.8136004 -0.01579,1.9728374 -0.0086,2.5760824 l 0.01316,1.096808 2.867747,1.227089 2.867747,1.227088 2.867725,-1.227738 2.867726,-1.227738 -0.01926,-2.299439 L 28.8071,8.5396738 22.707376,5.9260729 C 19.352528,4.4885923 16.55666,3.3124664 16.494335,3.3124596 16.43201,3.3124529 13.621389,4.4928714 10.24851,5.9356119 L 4.1160037,8.5587766 v 2.2817394 2.281739 l 6.6110773,2.833165 6.611078,2.833166 0.01905,3.073416 0.01906,3.073417 h -0.888303 -0.888302 l 0.05119,-1.342549 c 0.02815,-0.738403 0.02842,-1.881574 5.98e-4,-2.540382 l -0.05059,-1.197831 -0.482787,-0.210262 C 14.852542,19.528752 13.632668,19.011376 12.407244,18.494671 11.181821,17.977966 10.12265,17.523139 10.053531,17.483944 9.9257995,17.41151 8.9423151,17.799382 5.4674394,19.292632 l -1.3514357,0.580749 v 2.281362 2.281363 l 6.0997233,2.621963 c 4.47074,1.921747 6.15825,2.615456 6.318875,2.597596 0.120534,-0.0134 1.961408,-0.770635 4.090833,-1.682737 z"
     id="path2" />
</svg>
