<svg xmlns="http://www.w3.org/2000/svg" viewBox="0 0 32 32">
  <g
     id="s"
     transform="translate(0,13.024686)"
     style="stroke:#000000;stroke-opacity:1">
    <path
       id="line"
       style="fill:#000000;stroke:#000000;stroke-width:0.084105;stroke-opacity:1"
       d="M 9.3921923,15.010769 2.4955855,12.045245 V 8.6567571 5.2682682 L 5.0797206,4.161241 C 6.5009948,3.5523763 7.6820559,3.0360141 7.7043011,3.013769 7.7265455,2.9915245 6.554223,2.4646528 5.0991395,1.8429446 L 2.4535335,0.71256512 V -2.6601958 -6.0329574 l 7.0163906,-2.9985773 7.0163909,-2.9985773 7.027945,3.0054118 7.027947,3.0054119 -3.36e-4,3.3641984 -3.35e-4,3.36419838 -2.649831,1.12916092 c -1.457405,0.6210368 -2.620522,1.1563751 -2.584699,1.1896372 0.03584,0.03328 1.105927,0.5048768 2.378014,1.0480428 1.272088,0.5431616 2.436313,1.0463751 2.587168,1.118249 l 0.274278,0.1306816 -0.02195,3.3560749 -0.02195,3.3560751 -6.964194,2.977824 c -3.830335,1.637803 -7.028425,2.974137 -7.106895,2.96963 -0.07847,-0.0045 -3.246147,-1.342677 -7.0392807,-2.973715 z M 22.700461,13.59938 28.859808,10.969913 28.859318,8.6570266 28.858829,6.3441408 22.258421,3.5288154 15.658012,0.71348928 V -2.3795578 -5.4726061 h 0.839834 0.839834 l 0.02227,2.5714355 0.02227,2.57143556 2.852307,1.22193216 2.852307,1.22193348 2.889109,-1.23781188 2.889169,-1.23780992 -0.02234,-2.3038675 -0.02234,-2.3038669 -6.16539,-2.641673 -6.16539,-2.6416724 -6.219065,2.6559796 -6.2190647,2.6559796 v 2.2785497 2.27854914 L 10.695819,2.4636166 17.340111,5.3107469 V 8.3716186 11.43249 H 16.500294 15.660478 L 15.638218,8.8916243 15.615959,6.3507578 12.840496,5.1544454 C 11.313991,4.4964742 9.9886019,3.9556614 9.8951875,3.9526413 9.8017735,3.9496213 8.4581967,4.4906163 6.9094614,5.1548538 L 4.0935798,6.3625581 v 2.2947789 2.294779 l 6.1396622,2.634389 c 3.376814,1.448914 6.177509,2.636179 6.223767,2.638365 0.04626,0.0022 2.855811,-1.179283 6.243452,-2.62549 z" />
  </g>
</svg>
